<svg xmlns="http://www.w3.org/2000/svg" xmlns:xlink="http://www.w3.org/1999/xlink" width="500" zoomAndPan="magnify" viewBox="0 0 375 374.999991" height="500" preserveAspectRatio="xMidYMid meet" version="1.0"><defs><g/></defs><g fill="#000000" fill-opacity="1"><g transform="translate(58.968104, 250.06055)"><g><path d="M 0 -12.992188 C 10.921875 -4.132812 21.550781 0 35.722656 0 C 68.789062 0 93.589844 -20.074219 93.589844 -52.257812 L 93.589844 -160.015625 C 93.589844 -191.3125 99.789062 -199.875 112.484375 -199.28125 L 112.484375 -201.941406 L 46.648438 -201.941406 L 46.648438 -199.28125 C 59.34375 -199.875 65.542969 -191.3125 65.542969 -160.015625 L 65.542969 -35.132812 C 65.542969 -19.484375 61.113281 -5.609375 46.648438 -7.085938 C 33.363281 -8.265625 18.007812 -26.570312 10.332031 -39.855469 Z M 0 -12.992188 "/></g></g></g><g fill="#000000" fill-opacity="1"><g transform="translate(137.44914, 317.256849)"><g><path d="M 113.277344 -201.777344 L 83.484375 -201.777344 L 17.996094 -15.339844 C 15.042969 -7.078125 9.441406 -2.066406 0 -2.359375 L 0 0 C 13.863281 0 35.398438 0 49.855469 0 L 49.855469 -2.359375 C 40.414062 -2.066406 34.808594 -4.425781 31.859375 -12.980469 C 31.269531 -15.042969 30.382812 -17.40625 29.792969 -19.46875 C 28.023438 -24.484375 28.320312 -28.910156 29.792969 -33.925781 L 35.988281 -50.445312 C 42.480469 -69.03125 66.375 -59 77.878906 -54.871094 C 101.480469 -47.199219 118.292969 -51.625 128.617188 -73.453125 L 148.679688 -16.519531 C 151.921875 -6.488281 147.203125 -2.066406 137.175781 -2.359375 L 137.175781 0 L 196.761719 0 L 196.761719 -2.359375 C 186.144531 -2.066406 181.128906 -7.375 178.179688 -16.519531 Z M 126.847656 -79.355469 C 115.933594 -67.554688 100.890625 -74.929688 87.320312 -79.355469 C 67.847656 -85.84375 53.097656 -83.777344 42.773438 -70.503906 L 86.433594 -194.109375 Z M 126.847656 -79.355469 "/></g></g></g></svg>